<svg data-name="Kyobo CI - Header" xmlns="http://www.w3.org/2000/svg" width="291.79" height="84" viewBox="0 0 291.79 84">
    <path data-name="합치기 7" d="M275.384 31.145a6.055 6.055 0 0 1 0-10.392 13.589 13.589 0 0 1 13.363 0 6.053 6.053 0 0 1 0 10.392 13.705 13.705 0 0 1-13.363 0zm3.145-7.668a2.966 2.966 0 0 0-1.085 2.473 2.967 2.967 0 0 0 1.085 2.46 6.1 6.1 0 0 0 7.088 0 2.976 2.976 0 0 0 1.094-2.46 2.974 2.974 0 0 0-1.094-2.473 6.173 6.173 0 0 0-7.088 0zm-34.157 7.7a5.855 5.855 0 0 1 0-10.185 13.912 13.912 0 0 1 13.352 0 5.864 5.864 0 0 1 0 10.185 13.9 13.9 0 0 1-13.352 0zm3.114-7.456a2.772 2.772 0 0 0-1.07 2.369 2.769 2.769 0 0 0 1.07 2.361 6.322 6.322 0 0 0 7.119 0 3.128 3.128 0 0 0 0-4.73 6.449 6.449 0 0 0-7.119 0zM132.1 28.8c-2.773-2.758-4.289-7.115-4.289-12.243 0-5.145 1.517-9.482 4.289-12.258a15.368 15.368 0 0 1 20.346 0c2.764 2.776 4.289 7.113 4.289 12.258 0 5.128-1.525 9.485-4.289 12.243a15.246 15.246 0 0 1-20.346 0zm4.327-21.155c-1.486 1.927-2.274 4.99-2.274 8.912s.788 7.029 2.274 8.878a7.228 7.228 0 0 0 5.839 2.726 7.332 7.332 0 0 0 5.874-2.707v-.019c1.495-1.849 2.265-4.953 2.265-8.878s-.77-6.985-2.265-8.912a7.812 7.812 0 0 0-11.712 0zM63.009 28.8c-2.795-2.758-4.333-7.115-4.333-12.243 0-5.145 1.538-9.482 4.333-12.258A13.935 13.935 0 0 1 73.164.447 14.038 14.038 0 0 1 83.344 4.3c2.751 2.776 4.287 7.113 4.287 12.258 0 5.128-1.536 9.485-4.287 12.243a13.976 13.976 0 0 1-10.181 3.89A13.875 13.875 0 0 1 63.009 28.8zm4.314-21.158c-1.49 1.927-2.287 4.99-2.287 8.912s.8 7.029 2.287 8.9a7.677 7.677 0 0 0 11.7 0v-.019c1.508-1.849 2.269-4.953 2.269-8.878s-.762-6.985-2.269-8.912a7.8 7.8 0 0 0-11.7 0zm30.213 24.309a2.92 2.92 0 0 0 .779-2.145V3.294a2.975 2.975 0 0 0-.779-2.169h10.172c4.852 0 9.128 2.365 9.128 6.955 0 1.94-.9 4.691-3.149 5.9a8.368 8.368 0 0 1 5.64 7.895 9.639 9.639 0 0 1-3.7 7.58 12.012 12.012 0 0 1-7.916 2.5zm6.719-14.47v9.889c1.956.54 5.1.412 6.651-.6a4.891 4.891 0 0 0 2.173-4.532c0-3.376-2.952-4.929-5.8-4.929a22.194 22.194 0 0 0-3.024.172zm0-11.608v6.9a10.25 10.25 0 0 0 4.346-.514 3.339 3.339 0 0 0 2.09-3.21 3.693 3.693 0 0 0-3.963-3.478 8.053 8.053 0 0 0-2.473.302zm-86.13 26.078c-1.274 0-1.886-.5-2.7-1.7l-8.708-12.5v12.055a2.935 2.935 0 0 0 .775 2.145H0a2.975 2.975 0 0 0 .762-2.145V3.294A3.036 3.036 0 0 0 0 1.125h7.493a3 3 0 0 0-.775 2.169v11.482l7.789-11.283c.72-1.231.681-1.862.289-2.367h7.386L12.141 15.319l9.833 14.006a14.44 14.44 0 0 0 2.16 2.626zm18.737 0a2.823 2.823 0 0 0 .8-2.143V18.537L29.369 3.769a12.255 12.255 0 0 0-1.862-2.644H33.1c1.282 0 1.832.527 2.5 1.706.871 1.562.871 1.817 5.589 10.411l5.62-9.794c.622-.976.578-1.8.068-2.324h7.108L43.6 18.611v11.2a2.92 2.92 0 0 0 .777 2.143zm167.9-1.549v-3.609h11.488v-6.182h5.036v6.182h11.325V30.4zm-32.2 0v-3.609h6.1V13.969h4.508v12.824h3.064V13.969h4.517v12.824h9.671V30.4zm20.738-7.117V5.035h-17.709V1.408h20.961c2.291 0 2.272 1.393 2.024 4-.453 4.841-1.243 12.066-2.346 17.874zm18.157-4.637c-2.086 0-2.788-1.171-2.788-2.853V1.114h5.031V7.07h9.973V1.114h5.027v14.68c0 1.683-.718 2.853-2.8 2.853zm2.237-3.091h9.973v-4.876H213.7zm73.05 2.629v-4.617h-3.784V9.951h3.788V7.506h-3.788V3.884h3.788V0h5.042v18.185zm-30.494-.266v-7.571h-1.878v7.571h-4.5V0h4.5v6.72h1.878V0h4.51v17.919zm-14.56-7.2a19.492 19.492 0 0 1-4.889 6.715l-2.265-1.735c3.738-4.32 4.8-8.791 4.8-14.584h4.683c0 5.793 1.068 10.264 4.79 14.584l-2.261 1.739a19.038 19.038 0 0 1-4.853-6.717zm28.745 5.9c-2.1 0-2.8-1.181-2.8-2.871V1.408h13.706v12.347c0 1.689-.709 2.871-2.792 2.871zm2.22-3.62h3.659V5.037h-3.659z" transform="translate(0 51.116)" style="fill:#121c72"/>
    <path data-name="패스 403" d="M85.358-37.864a4.343 4.343 0 0 1-4.608-4.062 4.316 4.316 0 0 1 4.056-4.607 4.291 4.291 0 0 1 4.56 4.054 4.323 4.323 0 0 1-4.007 4.615m39.817-6.445c-2.809-2.861-7.429-2.356-10.16.544-3.548 3.739-6.308 5.15-9.593 5-4.6-.2-6.854-3.762-9.21-8.27-2.453-4.7-6.228-7.312-10.923-7.312-7.381 0-11.8 6-11.8 12.711 0 10.292 7.2 16.464 12.2 19.06a29.719 29.719 0 0 0 12.877 3.184 39.554 39.554 0 0 1-1.776 8.014h8.453a37.925 37.925 0 0 1-1.79-8.277c12.357-1.618 18.243-7.272 21.467-12.649a13.565 13.565 0 0 0 2.2-7.008 6.852 6.852 0 0 0-1.943-5" transform="translate(41.187 54.348)" style="fill:#4dac26"/>
</svg>
